{
    "asset" : {
        "generator" : "Khronos glTF Blender I/O v1.7.33",
        "version" : "2.0"
    },
    "scene" : 0,
    "scenes" : [
        {
            "name" : "studio",
            "nodes" : [
                0,
                1,
                2,
                3,
                4,
                5,
                6,
                7,
                8
            ]
        }
    ],
    "nodes" : [
        {
            "mesh" : 0,
            "name" : "BMWWheelLogoFW.L",
            "scale" : [
                0.7636276483535767,
                0.7636276483535767,
                0.7636276483535767
            ],
            "translation" : [
                -3.0079641342163086,
                -0.7526900172233582,
                1.728819489479065
            ]
        },
        {
            "mesh" : 1,
            "name" : "BMWFrontTire.L",
            "translation" : [
                -3.0079641342163086,
                -0.7526899576187134,
                1.5947121381759644
            ]
        },
        {
            "mesh" : 2,
            "name" : "BMWFrontTread.L",
            "translation" : [
                -3.0079643726348877,
                -0.7526899576187134,
                1.5947121381759644
            ]
        },
        {
            "mesh" : 3,
            "name" : "BMWFrontBrake.L",
            "translation" : [
                -3.0079760551452637,
                -0.7526964545249939,
                1.5352389812469482
            ]
        },
        {
            "mesh" : 4,
            "name" : "BMWFronttirevalve.L",
            "translation" : [
                -3.0079641342163086,
                -0.7526899576187134,
                1.5947121381759644
            ]
        },
        {
            "mesh" : 5,
            "name" : "BMWFrontWheel.L"
        },
        {
            "mesh" : 6,
            "name" : "BMWFrontrim.L",
            "rotation" : [
                0,
                0,
                0.005304751917719841,
                0.999985933303833
            ],
            "translation" : [
                -3.0079643726348877,
                -0.7526899576187134,
                1.5947121381759644
            ]
        },
        {
            "mesh" : 7,
            "name" : "BMWFrontBrakeDisc.L",
            "rotation" : [
                0.7071067690849304,
                0,
                0,
                0.7071068286895752
            ],
            "translation" : [
                -3.0079643726348877,
                -0.7526899576187134,
                1.5947121381759644
            ]
        },
        {
            "name" : "BMWHeadLightA.005",
            "translation" : [
                0.06179235875606537,
                0,
                0
            ]
        }
    ],
    "materials" : [
        {
            "doubleSided" : true,
            "name" : "LogoWhite",
            "pbrMetallicRoughness" : {
                "baseColorFactor" : [
                    0.9667459726333618,
                    0.9667459726333618,
                    0.9667459726333618,
                    1
                ],
                "metallicFactor" : 0,
                "roughnessFactor" : 0.5
            }
        },
        {
            "doubleSided" : true,
            "name" : "LogoBlue",
            "pbrMetallicRoughness" : {
                "baseColorFactor" : [
                    0.23992982506752014,
                    0.6447175741195679,
                    0.7706555724143982,
                    1
                ],
                "metallicFactor" : 0,
                "roughnessFactor" : 0.5
            }
        },
        {
            "doubleSided" : true,
            "name" : "LogoBlack",
            "pbrMetallicRoughness" : {
                "baseColorFactor" : [
                    0.07999999821186066,
                    0.07999999821186066,
                    0.07999999821186066,
                    1
                ],
                "metallicFactor" : 0,
                "roughnessFactor" : 0.5
            }
        },
        {
            "doubleSided" : true,
            "name" : "LogoSilver",
            "pbrMetallicRoughness" : {
                "baseColorFactor" : [
                    0.7496458888053894,
                    0.7496458888053894,
                    0.7496458888053894,
                    1
                ],
                "metallicFactor" : 0,
                "roughnessFactor" : 0.5
            }
        },
        {
            "doubleSided" : true,
            "name" : "tiresidewall",
            "pbrMetallicRoughness" : {
                "baseColorFactor" : [
                    0.09019608050584793,
                    0.08627451211214066,
                    0.08627451211214066,
                    1
                ],
                "metallicFactor" : 0,
                "roughnessFactor" : 0.5
            }
        },
        {
            "doubleSided" : true,
            "name" : "tire",
            "pbrMetallicRoughness" : {
                "baseColorFactor" : [
                    0.09134235978126526,
                    0.08907186985015869,
                    0.08907186985015869,
                    1
                ],
                "metallicFactor" : 0,
                "roughnessFactor" : 0.5
            }
        },
        {
            "doubleSided" : true,
            "name" : "brake clipper",
            "pbrMetallicRoughness" : {
                "baseColorFactor" : [
                    0.921608030796051,
                    0.24774226546287537,
                    0.24774226546287537,
                    1
                ],
                "metallicFactor" : 0,
                "roughnessFactor" : 0.5
            }
        },
        {
            "doubleSided" : true,
            "name" : "WheelRim",
            "pbrMetallicRoughness" : {
                "baseColorFactor" : [
                    0.6235924363136292,
                    0.6177589893341064,
                    0.6177589893341064,
                    1
                ],
                "metallicFactor" : 0,
                "roughnessFactor" : 0.5
            }
        },
        {
            "doubleSided" : true,
            "name" : "brakeDisc",
            "pbrMetallicRoughness" : {
                "baseColorFactor" : [
                    0.7426473498344421,
                    0.7357001900672913,
                    0.7357001900672913,
                    1
                ],
                "metallicFactor" : 0,
                "roughnessFactor" : 0.5
            }
        }
    ],
    "meshes" : [
        {
            "name" : "Mesh.002",
            "primitives" : [
                {
                    "attributes" : {
                        "POSITION" : 0,
                        "NORMAL" : 1
                    },
                    "indices" : 2,
                    "material" : 0
                },
                {
                    "attributes" : {
                        "POSITION" : 3,
                        "NORMAL" : 4
                    },
                    "indices" : 5,
                    "material" : 1
                },
                {
                    "attributes" : {
                        "POSITION" : 6,
                        "NORMAL" : 7
                    },
                    "indices" : 8,
                    "material" : 2
                },
                {
                    "attributes" : {
                        "POSITION" : 9,
                        "NORMAL" : 10
                    },
                    "indices" : 11,
                    "material" : 3
                }
            ]
        },
        {
            "name" : "Circle.011",
            "primitives" : [
                {
                    "attributes" : {
                        "POSITION" : 12,
                        "NORMAL" : 13,
                        "TEXCOORD_0" : 14
                    },
                    "indices" : 15,
                    "material" : 4
                }
            ]
        },
        {
            "name" : "Plane.007",
            "primitives" : [
                {
                    "attributes" : {
                        "POSITION" : 16,
                        "NORMAL" : 17
                    },
                    "indices" : 18,
                    "material" : 5
                }
            ]
        },
        {
            "name" : "Circle.006",
            "primitives" : [
                {
                    "attributes" : {
                        "POSITION" : 19,
                        "NORMAL" : 20
                    },
                    "indices" : 21,
                    "material" : 6
                }
            ]
        },
        {
            "name" : "Circle.001",
            "primitives" : [
                {
                    "attributes" : {
                        "POSITION" : 22,
                        "NORMAL" : 23
                    },
                    "indices" : 24,
                    "material" : 7
                }
            ]
        },
        {
            "name" : "Circle.009",
            "primitives" : [
                {
                    "attributes" : {
                        "POSITION" : 25,
                        "NORMAL" : 26
                    },
                    "indices" : 27,
                    "material" : 7
                }
            ]
        },
        {
            "name" : "Circle.002",
            "primitives" : [
                {
                    "attributes" : {
                        "POSITION" : 28,
                        "NORMAL" : 29
                    },
                    "indices" : 30,
                    "material" : 7
                }
            ]
        },
        {
            "name" : "Mesh",
            "primitives" : [
                {
                    "attributes" : {
                        "POSITION" : 31,
                        "NORMAL" : 32
                    },
                    "indices" : 33,
                    "material" : 8
                }
            ]
        }
    ],
    "accessors" : [
        {
            "bufferView" : 0,
            "componentType" : 5126,
            "count" : 243,
            "max" : [
                0.08870601654052734,
                0.08858251571655273,
                0.003753604833036661
            ],
            "min" : [
                -0.0884389877319336,
                -0.08838224411010742,
                -0.0009813880315050483
            ],
            "type" : "VEC3"
        },
        {
            "bufferView" : 1,
            "componentType" : 5126,
            "count" : 243,
            "type" : "VEC3"
        },
        {
            "bufferView" : 2,
            "componentType" : 5123,
            "count" : 1194,
            "type" : "SCALAR"
        },
        {
            "bufferView" : 3,
            "componentType" : 5126,
            "count" : 28,
            "max" : [
                0.05296182632446289,
                0.05263328552246094,
                0.003753604833036661
            ],
            "min" : [
                -0.05253124237060547,
                -0.053044795989990234,
                -0.0009813880315050483
            ],
            "type" : "VEC3"
        },
        {
            "bufferView" : 4,
            "componentType" : 5126,
            "count" : 28,
            "type" : "VEC3"
        },
        {
            "bufferView" : 5,
            "componentType" : 5123,
            "count" : 144,
            "type" : "SCALAR"
        },
        {
            "bufferView" : 6,
            "componentType" : 5126,
            "count" : 38,
            "max" : [
                0.08870601654052734,
                0.08858251571655273,
                0.002898158971220255
            ],
            "min" : [
                -0.0884389877319336,
                -0.0883779525756836,
                0.0008057976374402642
            ],
            "type" : "VEC3"
        },
        {
            "bufferView" : 7,
            "componentType" : 5126,
            "count" : 38,
            "type" : "VEC3"
        },
        {
            "bufferView" : 8,
            "componentType" : 5123,
            "count" : 114,
            "type" : "SCALAR"
        },
        {
            "bufferView" : 9,
            "componentType" : 5126,
            "count" : 115,
            "max" : [
                0.09168052673339844,
                0.09157848358154297,
                0.0029277231078594923
            ],
            "min" : [
                -0.09141969680786133,
                -0.09134721755981445,
                -0.0010309790959581733
            ],
            "type" : "VEC3"
        },
        {
            "bufferView" : 10,
            "componentType" : 5126,
            "count" : 115,
            "type" : "VEC3"
        },
        {
            "bufferView" : 11,
            "componentType" : 5123,
            "count" : 513,
            "type" : "SCALAR"
        },
        {
            "bufferView" : 12,
            "componentType" : 5126,
            "count" : 3600,
            "max" : [
                0.6742778420448303,
                0.6742778420448303,
                0.2657887935638428
            ],
            "min" : [
                -0.6742773652076721,
                -0.674277663230896,
                -0.2657887935638428
            ],
            "type" : "VEC3"
        },
        {
            "bufferView" : 13,
            "componentType" : 5126,
            "count" : 3600,
            "type" : "VEC3"
        },
        {
            "bufferView" : 14,
            "componentType" : 5126,
            "count" : 3600,
            "type" : "VEC2"
        },
        {
            "bufferView" : 15,
            "componentType" : 5123,
            "count" : 20736,
            "type" : "SCALAR"
        },
        {
            "bufferView" : 16,
            "componentType" : 5126,
            "count" : 8010,
            "max" : [
                0.6801291108131409,
                0.6802836656570435,
                0.24944758415222168
            ],
            "min" : [
                -0.6801372766494751,
                -0.6802845597267151,
                -0.26128363609313965
            ],
            "type" : "VEC3"
        },
        {
            "bufferView" : 17,
            "componentType" : 5126,
            "count" : 8010,
            "type" : "VEC3"
        },
        {
            "bufferView" : 18,
            "componentType" : 5123,
            "count" : 30600,
            "type" : "SCALAR"
        },
        {
            "bufferView" : 19,
            "componentType" : 5126,
            "count" : 998,
            "max" : [
                0.41407978534698486,
                0.2297888696193695,
                0.04411058500409126
            ],
            "min" : [
                0.27360212802886963,
                -0.21666043996810913,
                0.016842953860759735
            ],
            "type" : "VEC3"
        },
        {
            "bufferView" : 20,
            "componentType" : 5126,
            "count" : 998,
            "type" : "VEC3"
        },
        {
            "bufferView" : 21,
            "componentType" : 5123,
            "count" : 5676,
            "type" : "SCALAR"
        },
        {
            "bufferView" : 22,
            "componentType" : 5126,
            "count" : 57,
            "max" : [
                -0.26536959409713745,
                -0.36742761731147766,
                0.15423162281513214
            ],
            "min" : [
                -0.27810463309288025,
                -0.38016262650489807,
                0.1294521987438202
            ],
            "type" : "VEC3"
        },
        {
            "bufferView" : 23,
            "componentType" : 5126,
            "count" : 57,
            "type" : "VEC3"
        },
        {
            "bufferView" : 24,
            "componentType" : 5123,
            "count" : 312,
            "type" : "SCALAR"
        },
        {
            "bufferView" : 25,
            "componentType" : 5126,
            "count" : 61,
            "max" : [
                -2.8076000213623047,
                -0.5523256063461304,
                1.6776480674743652
            ],
            "min" : [
                -3.20832896232605,
                -0.9530549645423889,
                1.4596315622329712
            ],
            "type" : "VEC3"
        },
        {
            "bufferView" : 26,
            "componentType" : 5126,
            "count" : 61,
            "type" : "VEC3"
        },
        {
            "bufferView" : 27,
            "componentType" : 5123,
            "count" : 300,
            "type" : "SCALAR"
        },
        {
            "bufferView" : 28,
            "componentType" : 5126,
            "count" : 2426,
            "max" : [
                0.5342048406600952,
                0.5342044830322266,
                0.2516195774078369
            ],
            "min" : [
                -0.5342045426368713,
                -0.5342049598693848,
                -0.26138874888420105
            ],
            "type" : "VEC3"
        },
        {
            "bufferView" : 29,
            "componentType" : 5126,
            "count" : 2426,
            "type" : "VEC3"
        },
        {
            "bufferView" : 30,
            "componentType" : 5123,
            "count" : 13800,
            "type" : "SCALAR"
        },
        {
            "bufferView" : 31,
            "componentType" : 5126,
            "count" : 26710,
            "max" : [
                0.36577749252319336,
                -0.04948478192090988,
                0.3657923936843872
            ],
            "min" : [
                -0.3657951354980469,
                -0.06948478519916534,
                -0.365780234336853
            ],
            "type" : "VEC3"
        },
        {
            "bufferView" : 32,
            "componentType" : 5126,
            "count" : 26710,
            "type" : "VEC3"
        },
        {
            "bufferView" : 33,
            "componentType" : 5123,
            "count" : 48192,
            "type" : "SCALAR"
        }
    ],
    "bufferViews" : [
        {
            "buffer" : 0,
            "byteLength" : 2916,
            "byteOffset" : 0
        },
        {
            "buffer" : 0,
            "byteLength" : 2916,
            "byteOffset" : 2916
        },
        {
            "buffer" : 0,
            "byteLength" : 2388,
            "byteOffset" : 5832
        },
        {
            "buffer" : 0,
            "byteLength" : 336,
            "byteOffset" : 8220
        },
        {
            "buffer" : 0,
            "byteLength" : 336,
            "byteOffset" : 8556
        },
        {
            "buffer" : 0,
            "byteLength" : 288,
            "byteOffset" : 8892
        },
        {
            "buffer" : 0,
            "byteLength" : 456,
            "byteOffset" : 9180
        },
        {
            "buffer" : 0,
            "byteLength" : 456,
            "byteOffset" : 9636
        },
        {
            "buffer" : 0,
            "byteLength" : 228,
            "byteOffset" : 10092
        },
        {
            "buffer" : 0,
            "byteLength" : 1380,
            "byteOffset" : 10320
        },
        {
            "buffer" : 0,
            "byteLength" : 1380,
            "byteOffset" : 11700
        },
        {
            "buffer" : 0,
            "byteLength" : 1026,
            "byteOffset" : 13080
        },
        {
            "buffer" : 0,
            "byteLength" : 43200,
            "byteOffset" : 14108
        },
        {
            "buffer" : 0,
            "byteLength" : 43200,
            "byteOffset" : 57308
        },
        {
            "buffer" : 0,
            "byteLength" : 28800,
            "byteOffset" : 100508
        },
        {
            "buffer" : 0,
            "byteLength" : 41472,
            "byteOffset" : 129308
        },
        {
            "buffer" : 0,
            "byteLength" : 96120,
            "byteOffset" : 170780
        },
        {
            "buffer" : 0,
            "byteLength" : 96120,
            "byteOffset" : 266900
        },
        {
            "buffer" : 0,
            "byteLength" : 61200,
            "byteOffset" : 363020
        },
        {
            "buffer" : 0,
            "byteLength" : 11976,
            "byteOffset" : 424220
        },
        {
            "buffer" : 0,
            "byteLength" : 11976,
            "byteOffset" : 436196
        },
        {
            "buffer" : 0,
            "byteLength" : 11352,
            "byteOffset" : 448172
        },
        {
            "buffer" : 0,
            "byteLength" : 684,
            "byteOffset" : 459524
        },
        {
            "buffer" : 0,
            "byteLength" : 684,
            "byteOffset" : 460208
        },
        {
            "buffer" : 0,
            "byteLength" : 624,
            "byteOffset" : 460892
        },
        {
            "buffer" : 0,
            "byteLength" : 732,
            "byteOffset" : 461516
        },
        {
            "buffer" : 0,
            "byteLength" : 732,
            "byteOffset" : 462248
        },
        {
            "buffer" : 0,
            "byteLength" : 600,
            "byteOffset" : 462980
        },
        {
            "buffer" : 0,
            "byteLength" : 29112,
            "byteOffset" : 463580
        },
        {
            "buffer" : 0,
            "byteLength" : 29112,
            "byteOffset" : 492692
        },
        {
            "buffer" : 0,
            "byteLength" : 27600,
            "byteOffset" : 521804
        },
        {
            "buffer" : 0,
            "byteLength" : 320520,
            "byteOffset" : 549404
        },
        {
            "buffer" : 0,
            "byteLength" : 320520,
            "byteOffset" : 869924
        },
        {
            "buffer" : 0,
            "byteLength" : 96384,
            "byteOffset" : 1190444
        }
    ],
    "buffers" : [
        {
            "byteLength" : 1286828,
            "uri" : "data:application/octet-stream;base64,"
        }
    ]
}
